<?xml version="1.0" encoding="UTF-8"?><svg id="a" xmlns="http://www.w3.org/2000/svg" viewBox="0 0 525 100"><defs><style>.b{fill:#fff;}.c{fill-rule:evenodd;}.c,.d{fill:#24292f;}</style></defs><rect class="b" width="525" height="100"/><path class="d" d="M213.28,42.49h-26.41c-.68,0-1.23,.55-1.23,1.23v12.91c0,.68,.55,1.23,1.23,1.23h10.3v16.04s-2.31,.79-8.71,.79c-7.54,0-18.09-2.75-18.09-25.94s10.98-26.24,21.29-26.24c8.92,0,12.76,1.57,15.21,2.33,.77,.23,1.48-.53,1.48-1.21l2.94-12.48c0-.38-.17-.74-.47-.96-.99-.71-7.05-4.1-22.36-4.1-17.63,0-35.72,7.5-35.72,43.57s20.71,41.43,38.16,41.43c14.45,0,23.21-6.18,23.21-6.18,.36-.2,.4-.7,.4-.94V43.72c0-.68-.55-1.23-1.23-1.23h0ZM348.18,9.19h-14.87c-.68,0-1.23,.56-1.23,1.24,0,0,0,0,0,0v28.74s-23.18,0-23.18,0V10.43c0-.68-.55-1.24-1.23-1.24h-14.87c-.68,0-1.23,.56-1.23,1.24,0,0,0,0,0,0V88.25c0,.68,.55,1.24,1.23,1.24h14.87c.68,0,1.23-.56,1.23-1.24,0,0,0,0,0,0V54.96h23.18l-.04,33.29c0,.69,.55,1.24,1.23,1.24h14.9c.68,0,1.23-.56,1.23-1.24,0,0,0,0,0,0V10.43c0-.69-.54-1.24-1.23-1.24Zm-116.42,1.77c-5.29,0-9.59,4.33-9.59,9.68s4.29,9.69,9.59,9.69,9.59-4.34,9.59-9.69-4.29-9.68-9.59-9.68Zm7.3,23.72h-14.82c-.68,0-1.29,.7-1.29,1.38v51.47c0,1.51,.94,1.96,2.16,1.96h13.35c1.47,0,1.83-.72,1.83-1.99V35.91c0-.68-.55-1.24-1.23-1.24h0Zm166.87,.11h-14.76c-.68,0-1.23,.56-1.22,1.24h0v38.16s-3.75,2.74-9.07,2.74-6.73-2.41-6.73-7.62V36.03c0-.68-.54-1.24-1.22-1.24,0,0,0,0,0,0h-14.98c-.68,0-1.23,.56-1.23,1.24v35.79c0,15.48,8.63,19.26,20.49,19.26,9.73,0,17.58-5.38,17.58-5.38,0,0,.37,2.84,.54,3.17,.17,.34,.61,.67,1.09,.67l9.53-.04c.68,0,1.24-.56,1.23-1.24h0s0-52.24,0-52.24c0-.68-.55-1.23-1.23-1.24h0Zm40.34-1.75c-8.38,0-14.08,3.74-14.08,3.74V10.43c0-.68-.55-1.24-1.23-1.24h-14.91c-.68,0-1.23,.55-1.23,1.23,0,0,0,0,0,0V88.25c0,.68,.55,1.24,1.23,1.24,0,0,0,0,0,0h10.35c.47,0,.82-.24,1.08-.66,.25-.42,.63-3.59,.63-3.59,0,0,6.1,5.78,17.64,5.78,13.55,0,21.33-6.87,21.33-30.86s-12.42-27.12-20.8-27.12h0Zm-5.83,43.85c-5.12-.16-8.59-2.48-8.59-2.48v-24.65s3.43-2.1,7.63-2.48c5.31-.48,10.44,1.13,10.44,13.81,0,13.37-2.31,16.01-9.47,15.79h0Zm-157.2-.29c-.65,0-2.31,.26-4.02,.26-5.48,0-7.34-2.55-7.34-5.84v-21.88h11.16c.68,0,1.23-.55,1.23-1.23,0,0,0,0,0,0v-11.99c0-.68-.55-1.24-1.23-1.24,0,0,0,0,0,0h-11.16l-.02-14.74c0-.56-.29-.84-.93-.84h-15.2c-.59,0-.91,.26-.91,.83v15.23s-7.62,1.84-8.13,1.99c-.53,.15-.89,.64-.89,1.18v9.57c0,.68,.55,1.24,1.23,1.24h7.79v23.02c0,17.11,12,18.78,20.09,18.78,3.7,0,8.12-1.18,8.85-1.46,.44-.17,.7-.62,.7-1.12v-10.53c0-.68-.55-1.23-1.22-1.24h0Z"/><path class="c" d="M101.19,6.11c-23.92,0-43.26,19.48-43.26,43.58,0,19.26,12.39,35.57,29.58,41.34,2.15,.43,2.94-.94,2.94-2.09,0-1.01-.07-4.47-.07-8.08-12.03,2.6-14.54-5.19-14.54-5.19-1.93-5.05-4.8-6.35-4.8-6.35-3.94-2.67,.29-2.67,.29-2.67,4.37,.29,6.66,4.47,6.66,4.47,3.87,6.64,10.1,4.76,12.6,3.61,.36-2.81,1.5-4.76,2.72-5.84-9.6-1.01-19.69-4.76-19.69-21.5,0-4.76,1.72-8.66,4.44-11.69-.43-1.08-1.93-5.56,.43-11.54,0,0,3.65-1.15,11.89,4.47,3.53-.95,7.16-1.44,10.81-1.44,3.65,0,7.38,.51,10.81,1.44,8.24-5.63,11.89-4.47,11.89-4.47,2.36,5.99,.86,10.46,.43,11.54,2.79,3.03,4.44,6.93,4.44,11.69,0,16.74-10.1,20.42-19.77,21.5,1.58,1.37,2.94,3.97,2.94,8.08,0,5.84-.07,10.53-.07,11.98,0,1.15,.79,2.53,2.94,2.09,17.19-5.77,29.58-22.08,29.58-41.34,.07-24.1-19.34-43.58-43.18-43.58Z"/></svg>