<?xml version="1.0" encoding="UTF-8"?><svg id="a" xmlns="http://www.w3.org/2000/svg" viewBox="0 0 525 100"><defs><style>.b{fill:#fff;}.c{fill:#8197ec;}</style></defs><rect class="b" width="525" height="100"/><g><path class="c" d="M97.22,92.73c-.3,0-.67,0-.97-.06-.79-.12-1.51-.24-2.36-.54-1.45-.48-2.72-1.15-3.63-1.69-2-1.15-3.99-2.54-6.17-4.36-.97-.79-1.88-1.63-2.78-2.48l-.73-.73c-.54-.48-.97-.97-1.33-1.57-.67-1.03-1.27-2.42-1.33-4.17-.06-.54-.12-1.15-.12-1.75,0-1.27,.06-2.6,.24-3.93,.36-2.72,1.27-5.14,1.94-6.96,.06-.18,.12-.3,.18-.48-.18-.48-.36-.97-.54-1.51-.97-2.72-1.57-5.75-1.88-8.77-.3-3.21-.18-6.41,.24-9.62,.12-.67,.18-1.33,.36-2-1.27-1.81-2.84-4.42-3.81-7.44v-.06c-.18-.6-.73-2.18-.42-4.17,.12-.73,.24-1.45,.54-2.24,.48-1.45,1.15-2.66,1.69-3.57,1.15-2,2.54-3.99,4.3-6.11,.79-.97,1.57-1.88,2.42-2.72l.73-.73c.36-.42,.79-.79,1.27-1.09,1.03-.79,2.48-1.45,4.48-1.51,.6-.06,1.33-.12,2-.12h.06c1.33,0,2.72,.12,4.05,.3,2.06,.3,3.99,.91,5.63,1.51,1.09-.48,2.24-.91,3.45-1.33,2.84-.97,5.87-1.57,8.89-1.75,3.21-.24,6.41-.12,9.5,.42,.73,.12,1.45,.24,2.18,.42,2.48-1.69,4.72-2.84,7.02-3.63h.06c.54-.18,1.69-.54,3.21-.54,.3,0,.67,0,.97,.06,.79,.12,1.51,.24,2.36,.54,1.45,.48,2.72,1.15,3.63,1.69,2,1.15,3.99,2.54,6.17,4.36,.97,.79,1.88,1.63,2.78,2.48l.73,.73c.36,.3,.73,.67,.97,1.09,.97,1.21,1.69,2.9,1.69,5.32,.06,.85,.06,1.69,0,2.6-.12,1.94-.36,3.75-.85,5.44-.36,1.27-.79,2.48-1.27,3.75,.97,2.36,1.63,4.72,2.06,7.2,.97,5.14,.85,10.47-.3,15.61,.67,.97,1.33,1.94,1.81,2.84,.91,1.57,1.63,3.21,2.12,4.84,.18,.6,.67,2.18,.36,4.3-.12,.73-.3,1.39-.54,2.18-.97,2.66-2.42,4.84-3.69,6.65-1.39,2-3.02,3.93-4.72,5.69l-.6,.6c-.36,.42-.79,.79-1.27,1.15-1.03,.79-2.48,1.39-4.48,1.51-.6,.06-1.33,.12-2,.12h-.06c-1.39,0-2.84-.12-4.3-.36-2.36-.36-4.42-1.09-6.29-1.81-.97,.42-2.06,.79-3.02,1.09-2.9,.91-5.99,1.45-9.07,1.63-3.21,.18-6.41-.06-9.56-.6-.36-.06-.79-.18-1.15-.18-2.72,1.94-5.14,3.21-7.62,3.99h-.06c-.48,.06-1.63,.48-3.15,.48h0Zm-10.28-14.82l5.51,1.94c.48-1.33,.54-2.84,.18-4.17,0,.12,0,.24,.06,.36,0,.18,.06,.36,.06,.54-.06-1.03-.42-2.42-1.33-3.63-.36-.48-.79-.91-1.27-1.27l.24,.18,.48,.48c-.42-.42-.91-.85-1.39-1.21l-2.54,6.78h0Zm51.67-2.42c-.42,.42-.85,.85-1.21,1.39l6.23,2.42v-5.81h0c-.54,0-1.15,.06-1.69,.18h.3c.18,0,.36-.06,.54-.06-.97,.06-2.18,.36-3.33,1.09-.6,.42-1.15,.91-1.63,1.51l.18-.24,.6-.48h0Zm-45.86-1.39c.24,.18,.54,.42,.79,.67,1.33,1.15,2.6,2.06,3.75,2.72,.73-.36,1.57-.91,2.48-1.57,.24-.18,.48-.36,.73-.54,.18-.12,.24-.24,.42-.36,.06-.06,.18-.18,.18-.18l3.21-3.27,4.36,1.51c.18,.06,.3,.12,.42,.18,.97,.3,1.88,.54,2.84,.73,1.94,.36,3.99,.54,5.93,.36,1.88-.12,3.81-.48,5.57-.97,.91-.24,1.75-.54,2.6-.97,.42-.18,.85-.36,1.21-.54,1.03-.54,2.24-.85,3.45-.85,1.88,0,3.27,.67,3.99,1.03,.18,.12,.42,.18,.67,.24,1.33,.54,2.84,1.15,4.17,1.33,.18,.06,.48,.06,.67,.12,.79-.91,1.51-1.81,2.18-2.78,.42-.54,.85-1.15,1.21-1.69-.06-.12-.12-.18-.18-.36-.36-.6-.79-1.27-1.33-2.06-.18-.24-.36-.48-.54-.73-.12-.12-.18-.18-.24-.3-2.12-2.06-2.84-5.08-1.88-7.86,.06-.18,.12-.3,.18-.42,1.21-3.75,1.39-7.8,.73-11.62-.36-1.81-.91-3.63-1.69-5.38-.06-.18-.18-.3-.18-.48-1.69-3.21-.97-5.87-.36-7.2,.24-.54,.48-1.09,.67-1.63,.42-.97,.73-2.06,1.03-2.96,.12-.48,.18-.97,.24-1.51-.24-.18-.54-.42-.79-.67-1.39-1.15-2.6-2.06-3.75-2.72-.73,.42-1.57,.97-2.48,1.57-.24,.18-.54,.42-.79,.6-.06,.06-.18,.12-.18,.18-1.39,1.33-3.27,2.06-5.2,2.06-.97,0-1.81-.18-2.72-.54-.18-.06-.42-.18-.6-.18-.97-.24-1.88-.54-2.84-.67-1.94-.3-3.99-.42-5.93-.24-1.88,.18-3.75,.54-5.51,1.09-.91,.24-1.69,.6-2.54,.97-.42,.18-.79,.36-1.21,.54l-.18,.12c-1.09,.6-2.42,.97-3.63,.97s-2.3-.24-3.39-.79c-.24-.12-.48-.18-.73-.3-1.27-.54-2.78-1.09-4.05-1.27-.18-.06-.42-.06-.54-.12-.18,.24-.42,.54-.6,.73-1.15,1.39-2.06,2.6-2.72,3.81,.36,.73,.91,1.51,1.51,2.48,.18,.24,.36,.54,.54,.73,.12,.18,.24,.24,.36,.42l3.02,3.21-1.33,4.17c-.12,.24-.18,.54-.24,.79-.24,.97-.48,1.94-.6,2.9-.3,2-.36,3.99-.18,5.99,.18,1.88,.54,3.75,1.21,5.51,.3,.91,.67,1.69,1.03,2.54,.06,.12,.12,.18,.18,.3,1.09,2.24,1.09,4.72-.06,7.02-.12,.18-.18,.42-.24,.6-.18,.54-.48,1.03-.67,1.57-.42,1.15-.97,2.48-1.09,3.69-.24,.06-.3,.24-.3,.3h0Zm49.12-45.92c.42,.42,.91,.85,1.45,1.27l2.54-6.72-5.51-1.94c-.48,1.33-.54,2.84-.18,4.17v-.91c0,.79,.24,2.06,1.09,3.33,.42,.54,.91,1.09,1.45,1.57l-.24-.18-.6-.6h0Zm-52.51-6.47v5.81c.54,0,1.15-.06,1.69-.18h-.3c-.18,0-.36,.06-.54,.06,.97-.06,2.18-.36,3.33-1.09,.6-.42,1.15-.91,1.63-1.51l-.18,.24-.48,.54c.42-.42,.85-.91,1.21-1.39l-6.35-2.48h0Z"/><path class="c" d="M103.45,54.07l.36,14.76-3.63-2.96c-4.05,6.65-5.38,13.07-3.45,17.79l.67,1.69-1.69-.73c-3.81-1.69-7.26-3.99-10.1-7.02l-.18-.18-.06-.24c-.18-1.81-.12-3.81,.36-5.87v-.06c.67-2.54,1.69-5.14,2.9-7.68,.79-1.63,1.69-3.21,2.78-4.78l-3.21-2.6,15.25-2.12Z"/><path class="c" d="M129.34,46.63l-.36-14.76,3.63,2.96c4.05-6.65,5.38-13.07,3.45-17.79l-.67-1.69,1.69,.73c3.81,1.69,7.26,3.99,10.1,7.02l.18,.18,.06,.24c.18,1.81,.12,3.81-.36,5.87v.06c-.67,2.54-1.69,5.14-2.9,7.68-.79,1.63-1.69,3.21-2.78,4.78l3.21,2.6-15.25,2.12Z"/><path class="c" d="M120.27,62.97l14.76-.36-2.96,3.63c6.65,4.05,13.07,5.38,17.79,3.45l1.69-.67-.73,1.69c-1.69,3.81-3.99,7.26-7.02,10.1l-.18,.18-.24,.06c-1.81,.18-3.81,.12-5.87-.36h-.06c-2.54-.67-5.14-1.69-7.68-2.9-1.63-.79-3.21-1.69-4.78-2.78l-2.6,3.21-2.12-15.25Z"/><path class="c" d="M112.77,38.04l-14.76,.36,2.96-3.63c-6.65-4.05-13.07-5.38-17.79-3.45l-1.63,.67,.73-1.69c1.69-3.81,3.99-7.26,7.02-10.1l.18-.18,.24-.06c1.81-.18,3.81-.12,5.87,.36h.06c2.54,.67,5.14,1.69,7.68,2.9,1.63,.79,3.21,1.69,4.78,2.78l2.6-3.21,2.06,15.25Z"/><circle class="c" cx="116.52" cy="50.14" r="31.58"/><path class="b" d="M105.02,39.01c-1.81-.85-3.21-1.69-4.54-2.66-2.06-1.45-3.99-3.09-5.63-4.78-3.99-3.99-6.05-8.17-5.51-11.56l-1.21,1.33c-2.84,3.02-6.65,8.35-6.72,10.65l.06,.24c.54,1.75,1.33,3.57,2.54,5.26v.06c1.57,2.48,4.66,6.65,15.61,11.43l-1.94,3.63,14.76-3.99-5.26-13.85-2.18,4.23Z"/><path class="b" d="M127.95,61.94c1.81,.85,3.21,1.69,4.54,2.66,2.06,1.45,3.99,3.09,5.63,4.78,3.99,3.99,6.05,8.17,5.51,11.56l1.21-1.27c2.84-3.02,6.65-8.35,6.72-10.65l-.06-.24c-.54-1.75-1.33-3.57-2.54-5.26v-.06c-1.57-2.48-4.66-6.65-15.61-11.43l1.94-3.63-14.76,3.99,5.32,13.67,2.12-4.11Z"/><path class="b" d="M128.31,38.89c.85-1.81,1.69-3.21,2.66-4.54,1.45-2.06,3.09-3.99,4.78-5.63,3.99-3.99,8.17-6.05,11.56-5.51l-1.27-1.21c-3.02-2.84-8.35-6.65-10.65-6.72l-.24,.06c-1.75,.54-3.57,1.33-5.26,2.54h-.06c-2.48,1.57-6.65,4.66-11.43,15.61l-3.63-1.94,3.99,14.76,13.79-5.2-4.23-2.24Z"/><path class="b" d="M104.42,61.82c-.85,1.81-1.69,3.21-2.66,4.54-1.45,2.06-3.09,3.99-4.78,5.63-3.99,3.99-8.17,6.05-11.56,5.51l1.27,1.21c3.02,2.84,8.35,6.65,10.65,6.72l.24-.06c1.75-.54,3.57-1.33,5.26-2.54h.06c2.48-1.57,6.65-4.66,11.43-15.61l3.63,1.94-3.99-14.76-13.73,5.2,4.17,2.24Z"/></g><g><path d="M177.68,76.46h-3.09V24.61h4.42l15.55,43.74V24.55h3.15v51.85h-3.75l-16.27-46.16v46.22Z"/><path d="M220.76,48.63v3.15h-14.16v21.66h17.06v3.15h-20.45V24.67h20.45v3.15h-17.06v20.87h14.16v-.06Z"/><path d="M241.99,52.32l-10.53,24.14h-3.33l11.68-26.86-10.89-24.93h3.57l9.74,22.26,9.86-22.26h3.21l-10.89,24.93,11.62,26.86h-3.63l-10.41-24.14Z"/><path d="M264.25,63.93c0,5.51,2.06,9.86,7.8,9.86s7.8-4.3,7.8-9.86V24.61h3.21V63.81c0,7.38-3.15,13.07-11.07,13.07s-11.13-5.69-11.13-13.07V24.61h3.39V63.93h0Z"/><path d="M310.35,37.13v1.09h-3.27v-1.33c0-5.51-2.06-9.68-7.74-9.68s-7.74,4.05-7.74,9.56c0,12.58,18.75,12.83,18.75,27.1,0,7.44-3.21,12.95-11.19,12.95s-11.19-5.51-11.19-12.95v-2.66h3.21v2.84c0,5.51,2.12,9.56,7.8,9.56s7.8-3.99,7.8-9.56c0-12.46-18.75-12.7-18.75-27.1,0-7.8,3.39-12.83,11.07-12.89,8.05,.12,11.25,5.63,11.25,13.07Z"/><path class="c" d="M332.8,61.45l5.51-36.84h11.31v51.85h-7.74V39.31l-5.63,37.21h-7.74l-6.05-36.66v36.66h-7.08V24.61h11.31l6.11,36.84Z"/><path class="c" d="M354.58,37.07c0-8.29,4.36-13.07,12.34-13.07s12.34,4.72,12.34,13.07v26.98c0,8.29-4.36,13.07-12.34,13.07s-12.34-4.72-12.34-13.07v-26.98Zm8.17,27.53c0,3.69,1.63,5.14,4.23,5.14s4.23-1.39,4.23-5.14v-28.01c0-3.69-1.63-5.14-4.23-5.14s-4.23,1.39-4.23,5.14v28.01Z"/><path class="c" d="M384.22,24.61h12.89c8.17,0,12.16,4.54,12.16,12.83v26.26c0,8.29-3.99,12.83-12.16,12.83h-12.89V24.61Zm8.11,7.38v37.02h4.6c2.6,0,4.11-1.33,4.11-5.08v-26.92c0-3.69-1.57-5.08-4.11-5.08h-4.6v.06Z"/><path class="c" d="M425,24.01c7.93,0,11.98,4.72,11.98,13.07v1.63h-7.68v-2.12c0-3.69-1.45-5.14-4.05-5.14s-4.05,1.39-4.05,5.14c0,10.65,15.91,12.7,15.91,27.53,0,8.29-4.17,13.07-12.16,13.07s-12.16-4.72-12.16-13.07v-3.21h7.74v3.69c0,3.69,1.63,5.08,4.23,5.08s4.23-1.33,4.23-5.08c0-10.65-15.91-12.7-15.91-27.53-.06-8.29,3.99-13.07,11.92-13.07Z"/></g></svg>