<?xml version="1.0" encoding="UTF-8"?><svg xmlns="http://www.w3.org/2000/svg" viewBox="0 0 525 100"><defs><style>.c{fill:#fff;}.d{fill:#375a7f;}</style></defs><g id="a"><rect class="d" width="525" height="100"/></g><g id="b"><path class="c" d="M11.06,54.13l16.43,28.58,7.59-15.74-8.3-14.42c-.92-1.6-.92-3.43,0-5.04l10.36-18c.92-1.6,2.51-2.52,4.35-2.52h5.57l-10.78,24.25h13.32l-18.11,35.08,36.36-43.57h-11.18l7.63-15.77h21.14l8.32-14.46H34.99c-3,0-5.58,1.49-7.08,4.1L11.06,45.93c-1.5,2.61-1.5,5.6,0,8.2Zm25.19,33.4h32.45c3,0,5.58-1.49,7.09-4.1l16.85-29.3c1.49-2.6,1.49-5.59,0-8.2l-6.74-11.72h-16.63l7.65,13.3c.91,1.61,.91,3.44,0,5.04l-10.35,18.01c-.93,1.61-2.51,2.52-4.36,2.52h-7.52l-5.23-.06-13.2,14.52Z"/><path class="c" d="M154.19,39.44h-11.97v31.69h-11.44v-31.69h-12.03v-9.97h35.44v9.97Z"/><path class="c" d="M188.64,71.12h-11.15v-17.37c0-1.53-.35-2.62-1.06-3.29-.67-.7-1.51-1.06-2.52-1.06-.47,0-1.06,.18-1.76,.53-.66,.35-1.31,.86-1.94,1.53-.63,.67-1.11,1.45-1.47,2.35v17.31h-11.15V28.29h11.15v16.55c1.1-1.68,2.52-2.95,4.28-3.81,1.8-.9,3.77-1.35,5.93-1.35s3.93,.37,5.22,1.11c1.29,.7,2.25,1.62,2.88,2.76,.63,1.13,1.04,2.35,1.23,3.64,.24,1.29,.35,2.5,.35,3.64v20.3Z"/><path class="c" d="M193.75,60.56v-20.3h11.15v17.78c0,1.33,.29,2.39,.88,3.17,.63,.74,1.47,1.11,2.52,1.11,.59,0,1.17-.08,1.76-.23,.59-.16,1.17-.47,1.76-.94,.63-.47,1.23-1.13,1.82-2v-18.89h11.15v18.54c0,1.06,.16,1.8,.47,2.23,.31,.39,.86,.63,1.64,.7v9.39c-.98,.2-1.86,.33-2.64,.41-.78,.12-1.47,.18-2.05,.18-1.88,0-3.36-.35-4.46-1.06-1.1-.7-1.8-1.78-2.11-3.23l-.24-1.11c-1.45,1.92-3.19,3.31-5.22,4.17-1.99,.82-4.26,1.23-6.81,1.23-3.09,0-5.48-.96-7.16-2.88-1.64-1.92-2.46-4.67-2.46-8.27Z"/><path class="c" d="M262.5,71.12h-11.15v-17.37c0-1.53-.35-2.62-1.06-3.29-.67-.7-1.45-1.06-2.35-1.06-.62,0-1.29,.2-1.99,.59-.7,.35-1.35,.86-1.94,1.53-.59,.67-1.06,1.43-1.41,2.29v17.31h-11.15v-30.86h10.03v4.58c.74-1.13,1.68-2.07,2.82-2.82,1.13-.78,2.44-1.37,3.93-1.76,1.49-.39,3.11-.59,4.87-.59,2.11,0,3.79,.37,5.05,1.11,1.25,.74,2.19,1.7,2.82,2.88,.63,1.17,1.04,2.41,1.23,3.7,.2,1.25,.29,2.41,.29,3.46v20.3Z"/><path class="c" d="M266.26,55.63c0-3.05,.57-5.77,1.7-8.16,1.17-2.43,2.78-4.32,4.81-5.69,2.03-1.41,4.36-2.11,6.98-2.11,2,0,3.83,.47,5.52,1.41,1.68,.9,2.95,2.15,3.81,3.76V28.29h11.15v30.51c0,1.06,.16,1.8,.47,2.23,.31,.39,.86,.63,1.64,.7v9.39c-1.92,.39-3.48,.59-4.69,.59-1.88,0-3.36-.35-4.46-1.06-1.1-.7-1.8-1.78-2.11-3.23l-.23-1.11c-1.06,1.88-2.48,3.25-4.28,4.11-1.8,.86-3.72,1.29-5.75,1.29s-4.07-.39-5.87-1.17c-1.76-.78-3.3-1.88-4.64-3.29-1.29-1.45-2.29-3.15-2.99-5.1-.7-1.99-1.06-4.17-1.06-6.51Zm22.88,3.52v-5.52c-.35-.9-.84-1.68-1.47-2.35-.59-.7-1.25-1.25-1.99-1.64-.74-.39-1.51-.59-2.29-.59-.82,0-1.58,.18-2.29,.53-.66,.35-1.25,.84-1.76,1.47-.51,.63-.9,1.35-1.17,2.17-.27,.82-.41,1.7-.41,2.64s.14,1.86,.41,2.64c.31,.78,.74,1.47,1.29,2.05,.55,.55,1.19,.98,1.94,1.29,.74,.31,1.56,.47,2.46,.47,.55,0,1.06-.06,1.53-.18,.47-.16,.92-.35,1.35-.59,.43-.27,.84-.61,1.23-1,.43-.43,.82-.9,1.17-1.41Z"/><path class="c" d="M322.12,71.71c-2.7,0-5.1-.41-7.22-1.23-2.11-.86-3.89-2.01-5.34-3.46-1.41-1.45-2.48-3.11-3.23-4.99-.74-1.88-1.11-3.85-1.11-5.93,0-2.97,.64-5.69,1.94-8.16,1.29-2.5,3.19-4.5,5.69-5.99,2.5-1.53,5.59-2.29,9.27-2.29s6.77,.74,9.27,2.23c2.5,1.49,4.4,3.44,5.69,5.87,1.29,2.43,1.94,5.07,1.94,7.92,0,.59-.04,1.19-.12,1.82-.04,.59-.1,1.11-.18,1.58h-21.65c.08,1.1,.37,2,.88,2.7,.55,.67,1.21,1.15,1.99,1.47,.82,.31,1.66,.47,2.52,.47,1.21,0,2.35-.27,3.4-.82,1.1-.55,1.82-1.31,2.17-2.29l9.45,2.7c-.82,1.64-1.98,3.09-3.46,4.34-1.45,1.25-3.17,2.25-5.16,2.99-1.99,.7-4.24,1.06-6.75,1.06Zm-5.28-19.3h10.21c-.12-1.02-.41-1.88-.88-2.58-.43-.7-1.02-1.25-1.76-1.64-.7-.39-1.53-.59-2.46-.59s-1.78,.2-2.52,.59c-.7,.39-1.29,.94-1.76,1.64-.43,.7-.7,1.56-.82,2.58Z"/><path class="c" d="M363.63,49.77c-2.15,0-4.11,.23-5.87,.7-1.76,.47-3.07,1.25-3.93,2.35v18.31h-11.15v-30.86h10.21v5.87c1.1-2.07,2.46-3.66,4.11-4.75,1.64-1.13,3.38-1.7,5.22-1.7h.88c.2,0,.37,.02,.53,.06v10.03Z"/><path class="c" d="M379.47,71.71c-2.7,0-5.36-.43-7.98-1.29-2.58-.9-4.77-2.19-6.57-3.87l3.81-6.87c1.92,1.25,3.76,2.23,5.52,2.93,1.8,.7,3.42,1.06,4.87,1.06,.82,0,1.43-.1,1.82-.29,.39-.23,.59-.61,.59-1.11,0-.35-.14-.65-.41-.88-.27-.23-.72-.47-1.35-.7-.59-.23-1.35-.49-2.29-.76-2.42-.86-4.46-1.66-6.1-2.41-1.6-.74-2.82-1.64-3.64-2.7-.78-1.1-1.17-2.54-1.17-4.34,0-2.11,.53-3.97,1.58-5.57,1.06-1.64,2.56-2.93,4.52-3.87,1.99-.94,4.38-1.41,7.16-1.41,2.07,0,4.15,.33,6.22,1,2.11,.63,4.15,1.78,6.1,3.46l-4.22,6.81c-1.96-1.21-3.62-2.07-4.99-2.58-1.33-.51-2.52-.76-3.58-.76-.51,0-.96,.06-1.35,.18-.35,.12-.63,.29-.82,.53-.2,.23-.29,.55-.29,.94s.14,.72,.41,1c.27,.23,.7,.47,1.29,.7,.59,.2,1.33,.43,2.23,.7,2.66,.78,4.83,1.58,6.51,2.41,1.68,.78,2.91,1.74,3.7,2.88,.82,1.13,1.23,2.62,1.23,4.46,0,3.25-1.15,5.79-3.46,7.63-2.27,1.84-5.38,2.76-9.33,2.76Z"/><path class="c" d="M417.8,69.42c-1.02,.43-2.11,.84-3.29,1.23-1.13,.35-2.31,.63-3.52,.82-1.17,.2-2.33,.29-3.46,.29-1.68,0-3.23-.27-4.64-.82-1.41-.59-2.54-1.53-3.4-2.82-.82-1.33-1.23-3.11-1.23-5.34v-14.14h-3.81v-8.39h3.81v-9.68h11.15v9.68h6.04v8.39h-6.04v10.21c0,1.02,.21,1.74,.65,2.17,.43,.39,1.02,.59,1.76,.59,.55,0,1.17-.1,1.88-.29,.71-.2,1.41-.43,2.11-.7l1.99,8.8Z"/><path class="c" d="M435.81,71.71c-2.74,0-5.16-.43-7.28-1.29-2.11-.86-3.89-2.03-5.34-3.52-1.41-1.53-2.48-3.25-3.23-5.16-.7-1.92-1.06-3.93-1.06-6.04s.35-4.13,1.06-6.04c.74-1.96,1.82-3.68,3.23-5.16,1.45-1.49,3.23-2.66,5.34-3.52,2.11-.86,4.54-1.29,7.28-1.29s5.2,.43,7.28,1.29c2.11,.86,3.87,2.03,5.28,3.52,1.45,1.49,2.52,3.21,3.23,5.16,.74,1.92,1.12,3.93,1.12,6.04s-.37,4.13-1.12,6.04c-.7,1.92-1.78,3.64-3.23,5.16-1.41,1.49-3.17,2.66-5.28,3.52-2.07,.86-4.5,1.29-7.28,1.29Zm-5.46-16.02c0,1.37,.24,2.56,.7,3.58,.47,.98,1.11,1.74,1.94,2.29,.82,.51,1.76,.76,2.82,.76s1.99-.25,2.82-.76c.82-.55,1.47-1.31,1.94-2.29,.47-1.02,.7-2.21,.7-3.58s-.23-2.54-.7-3.52c-.47-1.02-1.12-1.78-1.94-2.29-.82-.55-1.76-.82-2.82-.82s-1.99,.27-2.82,.82c-.82,.51-1.47,1.27-1.94,2.29-.47,.98-.7,2.15-.7,3.52Z"/><path class="c" d="M477.6,49.77c-2.15,0-4.11,.23-5.87,.7-1.76,.47-3.07,1.25-3.93,2.35v18.31h-11.15v-30.86h10.21v5.87c1.1-2.07,2.46-3.66,4.11-4.75,1.64-1.13,3.38-1.7,5.22-1.7h.88c.2,0,.37,.02,.53,.06v10.03Z"/><path class="c" d="M496.26,71.71c-2.7,0-5.1-.41-7.22-1.23-2.11-.86-3.89-2.01-5.34-3.46-1.41-1.45-2.48-3.11-3.23-4.99-.74-1.88-1.11-3.85-1.11-5.93,0-2.97,.64-5.69,1.94-8.16,1.29-2.5,3.19-4.5,5.69-5.99,2.5-1.53,5.59-2.29,9.27-2.29s6.77,.74,9.27,2.23c2.5,1.49,4.4,3.44,5.69,5.87,1.29,2.43,1.94,5.07,1.94,7.92,0,.59-.04,1.19-.12,1.82-.04,.59-.1,1.11-.18,1.58h-21.65c.08,1.1,.37,2,.88,2.7,.55,.67,1.21,1.15,1.99,1.47,.82,.31,1.66,.47,2.52,.47,1.21,0,2.35-.27,3.4-.82,1.1-.55,1.82-1.31,2.17-2.29l9.45,2.7c-.82,1.64-1.98,3.09-3.46,4.34-1.45,1.25-3.17,2.25-5.16,2.99-1.99,.7-4.24,1.06-6.75,1.06Zm-5.28-19.3h10.21c-.12-1.02-.41-1.88-.88-2.58-.43-.7-1.02-1.25-1.76-1.64-.7-.39-1.52-.59-2.46-.59s-1.78,.2-2.52,.59c-.7,.39-1.29,.94-1.76,1.64-.43,.7-.7,1.56-.82,2.58Z"/></g></svg>